<svg width="288" height="32" viewBox="0 0 288 32" fill="none" xmlns="http://www.w3.org/2000/svg">
<path d="M91.1423 15.132C91.7543 14.736 92.1263 13.992 92.1263 13.272C92.1263 12.036 91.0943 11.112 89.6903 11.112H86.3063V19.512H89.7503C91.2023 19.512 92.3423 18.468 92.3423 17.148C92.3423 16.248 91.8983 15.492 91.1423 15.132ZM90.7463 13.464C90.7463 14.088 90.2663 14.556 89.6063 14.556H87.6623V12.372H89.6063C90.2663 12.372 90.7463 12.84 90.7463 13.464ZM89.6783 18.192H87.6623V15.816H89.6783C90.4103 15.816 90.9383 16.32 90.9383 17.004C90.9383 17.688 90.4103 18.192 89.6783 18.192ZM99.3329 13.02L99.1769 13.836C98.5889 13.224 97.7609 12.864 96.8009 12.864C94.8689 12.864 93.4289 14.316 93.4289 16.26C93.4289 18.204 94.8689 19.668 96.8009 19.668C97.7489 19.668 98.5649 19.308 99.1529 18.72L99.2849 19.5H100.353V13.02H99.3329ZM96.9089 18.384C95.6849 18.384 94.7849 17.472 94.7849 16.26C94.7849 15.048 95.6849 14.136 96.9089 14.136C98.1329 14.136 99.0209 15.036 99.0209 16.26C99.0209 17.484 98.1329 18.384 96.9089 18.384ZM105.18 19.668C106.776 19.668 108.06 18.66 108.408 17.148H107.064C106.716 17.94 106.032 18.396 105.18 18.396C104.028 18.396 103.14 17.46 103.14 16.26C103.14 15.06 104.016 14.136 105.18 14.136C106.02 14.136 106.74 14.592 107.076 15.336H108.396C108.036 13.848 106.788 12.864 105.18 12.864C103.248 12.864 101.784 14.328 101.784 16.26C101.784 18.192 103.248 19.668 105.18 19.668ZM113.941 19.5H115.573L113.137 16.14L115.333 13.02H113.761L112.009 15.528H111.193V10.704H109.861V19.5H111.193V16.74H111.997L113.941 19.5ZM122.266 18.3C121.486 18.3 121.054 17.868 121.054 17.088V14.172H122.974V13.02H121.042V11.508H120.814L118.558 13.908V14.172H119.722V17.196C119.722 18.624 120.598 19.5 122.014 19.5H123.01V18.3H122.266ZM127.225 19.668C129.205 19.668 130.681 18.216 130.681 16.26C130.681 14.316 129.205 12.864 127.225 12.864C125.233 12.864 123.757 14.304 123.757 16.26C123.757 18.216 125.233 19.668 127.225 19.668ZM127.225 18.396C125.989 18.396 125.113 17.508 125.113 16.26C125.113 15.024 125.989 14.136 127.225 14.136C128.449 14.136 129.325 15.024 129.325 16.26C129.325 17.508 128.449 18.396 127.225 18.396ZM137.828 18.3C137.048 18.3 136.616 17.868 136.616 17.088V14.172H138.536V13.02H136.604V11.508H136.376L134.12 13.908V14.172H135.284V17.196C135.284 18.624 136.16 19.5 137.576 19.5H138.572V18.3H137.828ZM142.788 19.668C144.768 19.668 146.244 18.216 146.244 16.26C146.244 14.316 144.768 12.864 142.788 12.864C140.796 12.864 139.32 14.304 139.32 16.26C139.32 18.216 140.796 19.668 142.788 19.668ZM142.788 18.396C141.552 18.396 140.676 17.508 140.676 16.26C140.676 15.024 141.552 14.136 142.788 14.136C144.012 14.136 144.888 15.024 144.888 16.26C144.888 17.508 144.012 18.396 142.788 18.396ZM151.155 12.864C150.219 12.864 149.403 13.224 148.815 13.824L148.563 13.02H147.675V21.828H149.007V18.888C149.571 19.38 150.315 19.668 151.155 19.668C153.087 19.668 154.515 18.204 154.515 16.26C154.515 14.316 153.087 12.864 151.155 12.864ZM151.047 18.396C149.823 18.396 148.923 17.484 148.923 16.26C148.923 15.048 149.823 14.136 151.047 14.136C152.271 14.136 153.159 15.048 153.159 16.26C153.159 17.484 152.271 18.396 151.047 18.396Z" fill="#89939A"/>
<rect x="171.5" y="31.5" width="31" height="31" rx="15.5" transform="rotate(-90 171.5 31.5)" stroke="#B4BDC4"/>
<path fill-rule="evenodd" clip-rule="evenodd" d="M182.529 18.4714C182.268 18.211 182.268 17.7889 182.529 17.5286L186.529 13.5286C186.789 13.2682 187.211 13.2682 187.472 13.5286L191.472 17.5286C191.732 17.7889 191.732 18.211 191.472 18.4714C191.211 18.7317 190.789 18.7317 190.529 18.4714L187 14.9428L183.472 18.4714C183.211 18.7317 182.789 18.7317 182.529 18.4714Z" fill="#0F0F11"/>
</svg>
